<svg width="24" height="24" viewBox="0 0 24 24" fill="none" xmlns="http://www.w3.org/2000/svg"><path d="M24 12s-4.5-8.25-12-8.25S0 12 0 12s4.5 8.25 12 8.25S24 12 24 12zM1.76 12a19.7 19.7 0 012.49-3.065C6.18 7.002 8.82 5.25 12 5.25c3.18 0 5.819 1.752 7.752 3.685.93.936 1.765 1.963 2.49 3.065-.087.13-.183.274-.293.432a19.78 19.78 0 01-2.197 2.633C17.819 16.998 15.179 18.75 12 18.75c-3.18 0-5.819-1.752-7.752-3.685A19.7 19.7 0 011.758 12h.002z" fill="#004FCB"/><path d="M12 8.25a3.75 3.75 0 100 7.5 3.75 3.75 0 000-7.5zM6.75 12a5.25 5.25 0 1110.5 0 5.25 5.25 0 01-10.5 0z" fill="#004FCB"/></svg>